<svg width="23" height="29" viewBox="0 0 23 29" fill="none" xmlns="http://www.w3.org/2000/svg">
<path d="M11.5 0.625002C10.8962 0.625002 10.4062 1.143 10.4062 1.78125L10.4062 24.8479L2.4481 16.0153C2.03193 15.5533 1.34013 15.5343 0.901537 15.9754C0.464036 16.4159 0.447083 17.1472 0.863802 17.6097L9.95286 27.6974C10.3663 28.1345 10.9154 28.375 11.5 28.375C12.084 28.375 12.6336 28.1345 13.0651 27.6772L22.1356 17.6097C22.5523 17.1472 22.5348 16.4159 22.0979 15.9754C21.6609 15.5343 20.9686 15.5528 20.5519 16.0153L12.5937 24.8849L12.5937 1.78125C12.5937 1.143 12.1037 0.625002 11.5 0.625002Z" fill="white"/>
</svg>
