<svg width="24" height="24" viewBox="0 0 24 24" fill="none" xmlns="http://www.w3.org/2000/svg">
<g clip-path="url(#clip0)">
<path d="M12.5853 12.6674L22.4071 2.84559C22.7529 2.49979 22.7529 1.93915 22.4071 1.59339C22.0613 1.24764 21.5007 1.2476 21.1549 1.59339L11.3331 11.4152L1.5113 1.59339C1.1655 1.2476 0.604859 1.2476 0.259105 1.59339C-0.0866496 1.93919 -0.0866939 2.49984 0.259105 2.84559L10.0809 12.6674L0.259105 22.4892C-0.0866939 22.835 -0.0866939 23.3956 0.259105 23.7414C0.431982 23.9143 0.658604 24.0007 0.885226 24.0007C1.11185 24.0007 1.33843 23.9143 1.51135 23.7414L11.3331 13.9196L21.1549 23.7414C21.3277 23.9143 21.5544 24.0007 21.781 24.0007C22.0076 24.0007 22.2342 23.9143 22.4071 23.7414C22.7529 23.3956 22.7529 22.8349 22.4071 22.4892L12.5853 12.6674Z" fill="white"/>
</g>
<defs>
<clipPath id="clip0">
<rect width="22.6667" height="22.6667" fill="white" transform="translate(0 1.33331)"/>
</clipPath>
</defs>
</svg>
