<svg width="24" height="24" viewBox="0 0 24 24" fill="none" xmlns="http://www.w3.org/2000/svg">
<path d="M23.0625 10.4375H0.9375C0.419719 10.4375 0 10.8572 0 11.375C0 11.8928 0.419719 12.3125 0.9375 12.3125H23.0625C23.5803 12.3125 24 11.8928 24 11.375C24 10.8572 23.5803 10.4375 23.0625 10.4375Z" fill="white"/>
<path d="M23.0625 3.5625H0.9375C0.419719 3.5625 0 3.98222 0 4.5C0 5.01778 0.419719 5.4375 0.9375 5.4375H23.0625C23.5803 5.4375 24 5.01778 24 4.5C24 3.98222 23.5803 3.5625 23.0625 3.5625Z" fill="white"/>
<path d="M23.0625 17.3125H0.9375C0.419719 17.3125 0 17.7322 0 18.25C0 18.7678 0.419719 19.1875 0.9375 19.1875H23.0625C23.5803 19.1875 24 18.7678 24 18.25C24 17.7322 23.5803 17.3125 23.0625 17.3125Z" fill="white"/>
</svg>
