<?xml version="1.0" encoding="iso-8859-1"?>
<!-- Generator: Adobe Illustrator 19.0.0, SVG Export Plug-In . SVG Version: 6.00 Build 0)  -->
<svg version="1.1" id="Capa_1" xmlns="http://www.w3.org/2000/svg" xmlns:xlink="http://www.w3.org/1999/xlink" x="0px" y="0px"
	 viewBox="0 0 512 512" style="enable-background:new 0 0 512 512;" xml:space="preserve">
<g>
	<g>
		<path d="M256,0C114.844,0,0,114.844,0,256s114.844,256,256,256s256-114.844,256-256S397.156,0,256,0z M256,469.333
			c-117.635,0-213.333-95.698-213.333-213.333c0-51.151,18.125-98.126,48.249-134.918l35.207,35.207
			c-11.682,7.618-19.456,20.75-19.456,35.711v149.333c0,23.531,19.146,42.667,42.667,42.667h204.5l37.085,37.085
			C354.126,451.208,307.151,469.333,256,469.333z M256,320c9.693,0,18.664-2.794,26.504-7.329l15.585,15.585
			c-11.997,8.225-26.478,13.078-42.089,13.078c-41.167,0-74.667-33.5-74.667-74.667c0-15.611,4.853-30.091,13.078-42.089
			l15.585,15.585c-4.535,7.841-7.329,16.813-7.329,26.504C202.667,296.073,226.583,320,256,320z M256,213.333
			c-3.867,0-7.618,0.461-11.254,1.246l-16.957-16.957C236.507,194.047,246.01,192,256,192c41.167,0,74.667,33.5,74.667,74.667
			c0,9.99-2.047,19.493-5.622,28.211l-16.957-16.957c0.785-3.635,1.246-7.387,1.246-11.254
			C309.333,237.26,285.417,213.333,256,213.333z M421.085,390.918l-24.268-24.268c5.281-7.102,8.517-15.805,8.517-25.316V192
			c0-23.531-19.146-42.667-42.667-42.667H313.75l-15.083-15.083c-4.021-4.031-9.396-6.25-15.083-6.25h-55.167
			c-5.688,0-11.063,2.219-15.083,6.25l-15.083,15.083H179.5l-58.418-58.418C157.874,60.792,204.849,42.667,256,42.667
			c117.635,0,213.333,95.698,213.333,213.333C469.333,307.151,451.208,354.126,421.085,390.918z"/>
	</g>
</g>
<g>
</g>
<g>
</g>
<g>
</g>
<g>
</g>
<g>
</g>
<g>
</g>
<g>
</g>
<g>
</g>
<g>
</g>
<g>
</g>
<g>
</g>
<g>
</g>
<g>
</g>
<g>
</g>
<g>
</g>
</svg>
