<?xml version="1.0" encoding="iso-8859-1"?>
<!-- Generator: Adobe Illustrator 19.0.0, SVG Export Plug-In . SVG Version: 6.00 Build 0)  -->
<svg version="1.1" id="Layer_1" xmlns="http://www.w3.org/2000/svg" xmlns:xlink="http://www.w3.org/1999/xlink" x="0px" y="0px"
	 viewBox="0 0 511.03 511.03" style="enable-background:new 0 0 511.03 511.03;" xml:space="preserve">
<g>
	<g>
		<path d="M416.809,200.418L152.282,14.389C130.151-0.972,107.89-4.358,89.145,5.798c-17.054,8.591-27.338,29.03-27.338,54.676
			v390.802c0,25.646,10.284,46.084,27.338,54.676c6.769,3.385,13.669,5.077,22.131,5.077c11.977,0,27.338-5.077,41.007-11.977
			l264.527-186.029c20.439-13.669,32.414-34.107,32.414-56.368C449.223,234.396,437.247,213.957,416.809,200.418z M396.241,283.993
			L131.714,470.022c-10.284,8.591-20.439,10.285-27.338,6.769c-6.769-3.385-10.284-13.669-10.284-25.646V60.344
			c0-13.669,3.385-22.13,10.284-25.646c1.692-1.692,5.077-1.692,6.769-1.692c5.077,0,13.669,1.692,22.13,8.591l264.527,186.029
			c10.284,6.769,17.054,17.053,17.054,27.338C415.117,265.249,408.217,275.402,396.241,283.993z"/>
	</g>
</g>
<g>
</g>
<g>
</g>
<g>
</g>
<g>
</g>
<g>
</g>
<g>
</g>
<g>
</g>
<g>
</g>
<g>
</g>
<g>
</g>
<g>
</g>
<g>
</g>
<g>
</g>
<g>
</g>
<g>
</g>
</svg>
