<svg width="18" height="18" viewBox="0 0 18 18" xmlns="http://www.w3.org/2000/svg">
<path d="M17.8901 17.3599L12.4133 11.883C13.5509 10.6199 14.25 8.95461 14.25 7.12498C14.25 3.1963 11.0537 0 7.12501 0C3.1963 0 0 3.1963 0 7.12501C0 11.0537 3.1963 14.25 7.12501 14.25C8.95465 14.25 10.6199 13.5509 11.883 12.4133L17.3599 17.8901C17.4331 17.9634 17.5291 18 17.625 18C17.721 18 17.8169 17.9634 17.8902 17.8901C18.0366 17.7436 18.0366 17.5063 17.8901 17.3599ZM7.12501 13.5C3.61013 13.5 0.750023 10.6403 0.750023 7.12501C0.750023 3.60977 3.61013 0.749988 7.12501 0.749988C10.6399 0.749988 13.5 3.60974 13.5 7.12501C13.5 10.6403 10.6399 13.5 7.12501 13.5Z"/>
</svg>
