<svg width="27" height="27" viewBox="0 0 27 27" fill="none" xmlns="http://www.w3.org/2000/svg">
<path d="M3.24296 14.745C3.19084 14.3108 3.16406 13.8794 3.16406 13.5C3.16406 7.8362 7.8362 3.16406 13.5 3.16406C16.1419 3.16406 18.6152 4.22926 20.4346 5.89039L19.5222 6.8186C19.3166 7.02418 19.2375 7.32472 19.3166 7.60961C19.4116 7.87843 19.633 8.08422 19.9177 8.14746C20.077 8.17939 25.308 9.86504 24.9749 9.79809C25.3986 9.93919 26.0252 9.48724 25.9084 8.86473C25.8763 8.70529 24.7182 2.89442 24.7852 3.2273C24.7219 2.94262 24.5161 2.70531 24.2314 2.62621C23.9626 2.54711 23.6619 2.62621 23.4563 2.83179L22.6811 3.59109C20.2922 1.36059 17.012 0 13.5 0C6.08031 0 0 6.08031 0 13.5V13.5315C0 13.9775 0.0203934 14.3221 0.0440827 14.5858C0.0755997 14.9352 0.333092 15.2213 0.677101 15.2903L2.30218 15.6151C2.83118 15.721 3.30682 15.2775 3.24296 14.745Z" fill="white"/>
<path d="M26.3276 11.7085L24.6978 11.3764C24.1682 11.2685 23.6893 11.7124 23.7543 12.2473C23.8108 12.709 23.8359 13.1578 23.8359 13.5C23.8359 19.1636 19.1638 23.8359 13.5 23.8359C10.8581 23.8359 8.38475 22.7707 6.56541 21.0937L7.47776 20.1814C7.68334 19.9758 7.76244 19.6753 7.68334 19.3904C7.58838 19.1214 7.36693 18.9158 7.08225 18.8525C6.92302 18.8204 1.69201 17.135 2.0251 17.2019C1.75608 17.1545 1.48705 17.2336 1.31319 17.4233C1.12326 17.5974 1.04416 17.8821 1.09154 18.1353C1.12368 18.2945 2.28198 24.0526 2.21503 23.7198C2.27806 24.0046 2.48385 24.2419 2.76854 24.3208C3.09874 24.4036 3.37436 24.3035 3.54369 24.1153L4.30319 23.356C6.69189 25.5867 9.97213 27 13.5 27C20.9197 27 27 20.9197 27 13.5V13.4524C27 13.1018 26.9872 12.7576 26.958 12.4154C26.9279 12.0659 26.6714 11.7787 26.3276 11.7085Z" fill="white"/>
</svg>
