<svg width="0" height="0" class="hidden">
  <symbol xmlns="http://www.w3.org/2000/svg" viewBox="0 0 512 512" id="no-photo">
    <path d="M256 0C114.844 0 0 114.844 0 256s114.844 256 256 256 256-114.844 256-256S397.156 0 256 0zm0 469.333c-117.635 0-213.333-95.698-213.333-213.333 0-51.151 18.125-98.126 48.249-134.918l35.207 35.207c-11.682 7.618-19.456 20.75-19.456 35.711v149.333c0 23.531 19.146 42.667 42.667 42.667h204.5l37.085 37.085c-36.793 30.123-83.768 48.248-134.919 48.248zM256 320c9.693 0 18.664-2.794 26.504-7.329l15.585 15.585c-11.997 8.225-26.478 13.078-42.089 13.078-41.167 0-74.667-33.5-74.667-74.667 0-15.611 4.853-30.091 13.078-42.089l15.585 15.585c-4.535 7.841-7.329 16.813-7.329 26.504C202.667 296.073 226.583 320 256 320zm0-106.667c-3.867 0-7.618.461-11.254 1.246l-16.957-16.957C236.507 194.047 246.01 192 256 192c41.167 0 74.667 33.5 74.667 74.667 0 9.99-2.047 19.493-5.622 28.211l-16.957-16.957c.785-3.635 1.246-7.387 1.246-11.254-.001-29.407-23.917-53.334-53.334-53.334zm165.085 177.585l-24.268-24.268c5.281-7.102 8.517-15.805 8.517-25.316V192c0-23.531-19.146-42.667-42.667-42.667H313.75l-15.083-15.083c-4.021-4.031-9.396-6.25-15.083-6.25h-55.167c-5.688 0-11.063 2.219-15.083 6.25l-15.083 15.083H179.5l-58.418-58.418C157.874 60.792 204.849 42.667 256 42.667c117.635 0 213.333 95.698 213.333 213.333 0 51.151-18.125 98.126-48.248 134.918z"></path>
  </symbol>
  <symbol xmlns="http://www.w3.org/2000/svg" viewBox="0 0 511.03 511.03" id="play">
    <path d="M416.809 200.418L152.282 14.389C130.151-.972 107.89-4.358 89.145 5.798c-17.054 8.591-27.338 29.03-27.338 54.676v390.802c0 25.646 10.284 46.084 27.338 54.676 6.769 3.385 13.669 5.077 22.131 5.077 11.977 0 27.338-5.077 41.007-11.977L416.81 313.023c20.439-13.669 32.414-34.107 32.414-56.368-.001-22.259-11.977-42.698-32.415-56.237zm-20.568 83.575L131.714 470.022c-10.284 8.591-20.439 10.285-27.338 6.769-6.769-3.385-10.284-13.669-10.284-25.646V60.344c0-13.669 3.385-22.13 10.284-25.646 1.692-1.692 5.077-1.692 6.769-1.692 5.077 0 13.669 1.692 22.13 8.591l264.527 186.029c10.284 6.769 17.054 17.053 17.054 27.338.261 10.285-6.639 20.438-18.615 29.029z"></path>
  </symbol>
  <symbol viewBox="0 0 18 18" xmlns="http://www.w3.org/2000/svg" id="search">
    <path d="M17.89 17.36l-5.477-5.477a7.088 7.088 0 0 0 1.837-4.758A7.133 7.133 0 0 0 7.125 0 7.133 7.133 0 0 0 0 7.125a7.133 7.133 0 0 0 7.125 7.125c1.83 0 3.495-.7 4.758-1.837l5.477 5.477a.374.374 0 0 0 .53 0 .375.375 0 0 0 0-.53zM7.125 13.5A6.382 6.382 0 0 1 .75 7.125 6.382 6.382 0 0 1 7.125.75 6.382 6.382 0 0 1 13.5 7.125 6.382 6.382 0 0 1 7.125 13.5z"></path>
  </symbol>
  <symbol viewBox="0 -10 511.987 511" xmlns="http://www.w3.org/2000/svg" id="star">
    <path d="M510.652 185.902a27.158 27.158 0 0 0-23.425-18.71l-147.774-13.419-58.433-136.77C276.71 6.98 266.898.494 255.996.494s-20.715 6.487-25.023 16.534l-58.434 136.746-147.797 13.418a27.208 27.208 0 0 0-23.402 18.71c-3.371 10.368-.258 21.739 7.957 28.907l111.7 97.96-32.938 145.09c-2.41 10.668 1.73 21.696 10.582 28.094 4.757 3.438 10.324 5.188 15.937 5.188 4.84 0 9.64-1.305 13.95-3.883l127.468-76.184 127.422 76.184c9.324 5.61 21.078 5.097 29.91-1.305a27.223 27.223 0 0 0 10.582-28.094l-32.937-145.09 111.699-97.94a27.224 27.224 0 0 0 7.98-28.927zm0 0"></path>
  </symbol>
  <symbol viewBox="0 0 512 512" xmlns="http://www.w3.org/2000/svg" id="techsupport">
    <path d="M0 305v60c0 30.376 24.624 55 55 55h30c8.284 0 15-6.716 15-15V250H55c-30.376 0-55 24.624-55 55zm351-10v-80c0-19.299-15.701-35-35-35H196c-19.299 0-35 15.701-35 35v80c0 19.299 15.701 35 35 35h34.569l55.828 46.523a14.994 14.994 0 0 0 15.965 2.061A15 15 0 0 0 311 365v-35h5c19.299 0 35-15.701 35-35zm-75-25h-40c-8.284 0-15-6.716-15-15s6.716-15 15-15h40c8.284 0 15 6.716 15 15s-6.716 15-15 15zm-75 212c0 16.569 13.431 30 30 30h50c16.569 0 30-13.431 30-30 0-16.569-13.431-30-30-30h-50c-16.569 0-30 13.431-30 30zm221-32v3c0 8.271-6.729 15-15 15h-67.666A59.896 59.896 0 0 1 341 482c0 5.541-.771 10.902-2.183 16H407c24.813 0 45-20.187 45-45v-3zm35-200h-45v155c0 8.284 6.716 15 15 15h30c30.376 0 55-24.624 55-55v-60c0-30.376-24.624-55-55-55z"></path>
    <path d="M408.735 63.265C367.938 22.468 313.696 0 256 0S144.062 22.468 103.265 63.265 40 158.304 40 216v4h60v-4c0-86.019 69.981-156 156-156s156 69.981 156 156v4h60v-4c0-57.696-22.468-111.938-63.265-152.735z"></path>
  </symbol>
  <symbol viewBox="0 0 27 27" fill="none" xmlns="http://www.w3.org/2000/svg" id="update">
    <path d="M3.243 14.745a10.681 10.681 0 0 1-.079-1.245c0-5.664 4.672-10.336 10.336-10.336 2.642 0 5.115 1.065 6.935 2.726l-.913.929a.809.809 0 0 0-.205.79.828.828 0 0 0 .6.538c.16.032 5.391 1.718 5.058 1.651.424.141 1.05-.31.933-.933l-1.123-5.638a.794.794 0 0 0-.554-.6.79.79 0 0 0-.775.205l-.775.76C20.292 1.36 17.012 0 13.5 0 6.08 0 0 6.08 0 13.5v.031c0 .446.02.791.044 1.055a.79.79 0 0 0 .633.704l1.625.325a.792.792 0 0 0 .941-.87zm23.085-3.036l-1.63-.333a.792.792 0 0 0-.944.871c.057.462.082.91.082 1.253 0 5.664-4.672 10.336-10.336 10.336-2.642 0-5.115-1.065-6.935-2.742l.913-.913c.205-.205.284-.506.205-.79a.828.828 0 0 0-.6-.538c-.16-.033-5.391-1.718-5.058-1.651a.775.775 0 0 0-.712.221.788.788 0 0 0-.221.712l1.123 5.585a.792.792 0 0 0 .554.6c.33.084.605-.017.775-.205l.76-.759C6.691 25.586 9.971 27 13.5 27 20.92 27 27 20.92 27 13.5v-.048c0-.35-.013-.694-.042-1.037a.79.79 0 0 0-.63-.706z"
      fill="#fff"></path>
  </symbol>
  <symbol viewBox="0 0 23 29" fill="none" xmlns="http://www.w3.org/2000/svg" id="arrow">
    <path d="M11.5.625c-.604 0-1.094.518-1.094 1.156v23.067l-7.958-8.833a1.053 1.053 0 0 0-1.546-.04 1.203 1.203 0 0 0-.038 1.635l9.089 10.087a2.11 2.11 0 0 0 1.547.678c.584 0 1.134-.24 1.565-.698l9.07-10.067c.417-.463.4-1.194-.037-1.635a1.052 1.052 0 0 0-1.546.04l-7.958 8.87V1.78c0-.638-.49-1.156-1.094-1.156z"
      fill="#fff"></path>
  </symbol>
  <symbol viewBox="0 0 512 512" xmlns="http://www.w3.org/2000/svg" id="box">
    <path d="M256 149.554l-20.001 131.791L256 512l198.791-65.896V215.45z" fill="#c48958"></path>
    <path d="M57.209 215.45v230.654L256 512V149.554z" fill="#e3a76f"></path>
    <path d="M241 0h30v100.174h-30zM99.92 45.84l25.98-15 50.087 86.75-25.98 15zm236.087 71.76l50.087-86.75 25.98 15-50.087 86.75z" fill="#ffda44"></path>
    <path d="M198.791 372.217L256 281.345 57.209 215.45 0 306.322z" fill="#f2d1a5"></path>
    <path d="M313.209 372.217L256 281.345l198.791-65.895L512 306.322z" fill="#e3a76f"></path>
  </symbol>
  <symbol viewBox="0 0 515.556 515.556" xmlns="http://www.w3.org/2000/svg" id="check">
    <path d="M0 274.226l176.549 176.886L515.556 112.44l-48.67-47.997-290.337 290L47.996 225.891z"></path>
  </symbol>
  <symbol viewBox="0 0 512 512" xmlns="http://www.w3.org/2000/svg" id="clock">
    <path d="M256 512C114.836 512 0 397.164 0 256S114.836 0 256 0s256 114.836 256 256-114.836 256-256 256zm0-480C132.48 32 32 132.48 32 256s100.48 224 224 224 224-100.48 224-224S379.52 32 256 32zm0 0"></path>
    <path d="M368 394.668a15.879 15.879 0 0 1-11.309-4.695l-112-112A16.002 16.002 0 0 1 240 266.668V117.332c0-8.832 7.168-16 16-16s16 7.168 16 16v142.7L379.309 367.34c6.25 6.25 6.25 16.383 0 22.633A15.879 15.879 0 0 1 368 394.668zm0 0"></path>
  </symbol>
  <symbol viewBox="0 0 24 24" fill="none" xmlns="http://www.w3.org/2000/svg" id="close">
    <g clip-path="url(#clip0)">
      <path d="M12.585 12.667l9.822-9.821a.885.885 0 1 0-1.252-1.253l-9.822 9.822-9.822-9.822A.885.885 0 1 0 .26 2.846l9.822 9.821L.259 22.49a.885.885 0 1 0 1.252 1.252l9.822-9.821 9.822 9.821a.882.882 0 0 0 1.252 0 .885.885 0 0 0 0-1.252l-9.822-9.822z"
        fill="#fff"></path>
    </g>
    <defs>
      <clipPath id="clip0">
        <path fill="#fff" transform="translate(0 1.333)" d="M0 0h22.667v22.667H0z"></path>
      </clipPath>
    </defs>
  </symbol>
  <symbol viewBox="0 -28 512 512" xmlns="http://www.w3.org/2000/svg" id="fav">
    <path d="M471.383 44.578C444.879 15.832 408.512 0 368.973 0c-29.555 0-56.621 9.344-80.45 27.77C276.5 37.07 265.605 48.45 256 61.73c-9.602-13.277-20.5-24.66-32.527-33.96C199.648 9.344 172.582 0 143.027 0c-39.539 0-75.91 15.832-102.414 44.578C14.426 72.988 0 111.801 0 153.871c0 43.3 16.137 82.938 50.781 124.742 30.992 37.395 75.535 75.356 127.117 119.313 17.614 15.012 37.579 32.027 58.309 50.152A30.023 30.023 0 0 0 256 455.516a30.03 30.03 0 0 0 19.785-7.43c20.73-18.129 40.707-35.152 58.328-50.172 51.575-43.95 96.117-81.906 127.11-119.305C495.867 236.81 512 197.172 512 153.867c0-42.066-14.426-80.879-40.617-109.289zm0 0"></path>
  </symbol>
  <symbol xmlns="http://www.w3.org/2000/svg" viewBox="0 0 330 330" id="info">
    <path d="M165 0C74.019 0 0 74.02 0 165.001 0 255.982 74.019 330 165 330s165-74.018 165-164.999S255.981 0 165 0zm0 300c-74.44 0-135-60.56-135-134.999S90.56 30 165 30s135 60.562 135 135.001C300 239.44 239.439 300 165 300z"></path>
    <path d="M164.998 70c-11.026 0-19.996 8.976-19.996 20.009 0 11.023 8.97 19.991 19.996 19.991 11.026 0 19.996-8.968 19.996-19.991 0-11.033-8.97-20.009-19.996-20.009zm.002 70c-8.284 0-15 6.716-15 15v90c0 8.284 6.716 15 15 15 8.284 0 15-6.716 15-15v-90c0-8.284-6.716-15-15-15z"></path>
  </symbol>
  <symbol xmlns="http://www.w3.org/2000/svg" viewBox="0 0 512 512" id="logout">
    <path d="M255.15 468.625H63.787c-11.737 0-21.262-9.526-21.262-21.262V64.638c0-11.737 9.526-21.262 21.262-21.262H255.15c11.758 0 21.262-9.504 21.262-21.262S266.908.85 255.15.85H63.787C28.619.85 0 29.47 0 64.638v382.724c0 35.168 28.619 63.787 63.787 63.787H255.15c11.758 0 21.262-9.504 21.262-21.262 0-11.758-9.504-21.262-21.262-21.262z"></path>
    <path d="M505.664 240.861L376.388 113.286c-8.335-8.25-21.815-8.143-30.065.213s-8.165 21.815.213 30.065l92.385 91.173H191.362c-11.758 0-21.262 9.504-21.262 21.262 0 11.758 9.504 21.263 21.262 21.263h247.559l-92.385 91.173c-8.377 8.25-8.441 21.709-.213 30.065a21.255 21.255 0 0 0 15.139 6.336c5.401 0 10.801-2.041 14.926-6.124l129.276-127.575A21.303 21.303 0 0 0 512 255.998c0-5.696-2.275-11.118-6.336-15.137z"></path>
  </symbol>
  <symbol viewBox="0 0 24 24" fill="none" xmlns="http://www.w3.org/2000/svg" id="menu">
    <path d="M23.063 10.438H.938a.937.937 0 1 0 0 1.874h22.125a.937.937 0 1 0 0-1.874zm0-6.875H.938a.937.937 0 1 0 0 1.874h22.125a.937.937 0 1 0 0-1.875zm0 13.75H.938a.937.937 0 1 0 0 1.875h22.125a.937.937 0 1 0 0-1.875z" fill="#fff"></path>
  </symbol>
  <symbol xmlns="http://www.w3.org/2000/svg" viewBox="0 0 409.6 409.6" id="minus">
    <path d="M392.533 187.733H17.067C7.641 187.733 0 195.374 0 204.8s7.641 17.067 17.067 17.067h375.467c9.426 0 17.067-7.641 17.067-17.067s-7.642-17.067-17.068-17.067z"></path>
  </symbol>
</svg>